<svg width="48" height="48" viewBox="0 0 48 48" fill="none" xmlns="http://www.w3.org/2000/svg">
  <!-- Balão de conversa com coração - representa conversa amorosa com Maria -->
  
  <!-- Balão principal -->
  <path 
    d="M8 12C8 9.79086 9.79086 8 12 8H36C38.2091 8 40 9.79086 40 12V28C40 30.2091 38.2091 32 36 32H26L18 40V32H12C9.79086 32 8 30.2091 8 28V12Z" 
    stroke="currentColor" 
    stroke-width="2" 
    stroke-linecap="round" 
    stroke-linejoin="round"
    fill="none"
  />
  
  <!-- Coração dentro do balão - amor maternal de Maria -->
  <path 
    d="M24 26C24 26 18 22 18 18.5C18 16.5 19.5 15 21.5 15C22.8 15 23.5 15.5 24 16.2C24.5 15.5 25.2 15 26.5 15C28.5 15 30 16.5 30 18.5C30 22 24 26 24 26Z" 
    stroke="currentColor" 
    stroke-width="1.5" 
    stroke-linecap="round" 
    stroke-linejoin="round"
    fill="none"
  />
</svg>
