<svg width="64" height="64" viewBox="0 0 64 64" fill="none" xmlns="http://www.w3.org/2000/svg">
  <defs>
    <linearGradient id="tercoCross" x1="0%" y1="0%" x2="100%" y2="100%">
      <stop offset="0%" style="stop-color:#FFD700"/>
      <stop offset="100%" style="stop-color:#B8860B"/>
    </linearGradient>
    <linearGradient id="tercoBeads" x1="0%" y1="0%" x2="100%" y2="100%">
      <stop offset="0%" style="stop-color:#87CEEB"/>
      <stop offset="100%" style="stop-color:#4169E1"/>
    </linearGradient>
    <linearGradient id="tercoBigBead" x1="0%" y1="0%" x2="100%" y2="100%">
      <stop offset="0%" style="stop-color:#DDA0DD"/>
      <stop offset="100%" style="stop-color:#9370DB"/>
    </linearGradient>
    <filter id="glowTerco">
      <feGaussianBlur stdDeviation="1.5" result="coloredBlur"/>
      <feMerge>
        <feMergeNode in="coloredBlur"/>
        <feMergeNode in="SourceGraphic"/>
      </feMerge>
    </filter>
  </defs>
  
  <!-- Brilhos decorativos -->
  <circle cx="8" cy="16" r="2" fill="#FFD700" opacity="0.5"/>
  <circle cx="56" cy="12" r="2.5" fill="#FFD700" opacity="0.6"/>
  <circle cx="52" cy="52" r="2" fill="#FFD700" opacity="0.4"/>
  
  <!-- Cruz dourada -->
  <rect x="28" y="4" width="8" height="24" rx="2" fill="url(#tercoCross)" filter="url(#glowTerco)"/>
  <rect x="22" y="10" width="20" height="6" rx="2" fill="url(#tercoCross)" filter="url(#glowTerco)"/>
  <!-- Brilho na cruz -->
  <ellipse cx="30" cy="8" rx="2" ry="1" fill="white" opacity="0.5"/>
  
  <!-- Contas do terço em arco -->
  <!-- Conta grande (Pai Nosso) -->
  <circle cx="32" cy="32" r="5" fill="url(#tercoBigBead)" filter="url(#glowTerco)"/>
  <ellipse cx="30" cy="30" rx="1.5" ry="1" fill="white" opacity="0.4"/>
  
  <!-- Contas pequenas (Ave Maria) - lado esquerdo -->
  <circle cx="20" cy="36" r="3.5" fill="url(#tercoBeads)"/>
  <circle cx="14" cy="42" r="3.5" fill="url(#tercoBeads)"/>
  <circle cx="12" cy="50" r="3.5" fill="url(#tercoBeads)"/>
  <circle cx="16" cy="57" r="3.5" fill="url(#tercoBeads)"/>
  
  <!-- Contas pequenas (Ave Maria) - lado direito -->
  <circle cx="44" cy="36" r="3.5" fill="url(#tercoBeads)"/>
  <circle cx="50" cy="42" r="3.5" fill="url(#tercoBeads)"/>
  <circle cx="52" cy="50" r="3.5" fill="url(#tercoBeads)"/>
  <circle cx="48" cy="57" r="3.5" fill="url(#tercoBeads)"/>
  
  <!-- Conta central inferior -->
  <circle cx="32" cy="58" r="4" fill="url(#tercoBigBead)" filter="url(#glowTerco)"/>
  
  <!-- Cordão conectando -->
  <path d="M32 28 Q32 32 32 37 Q28 40 20 36" stroke="#DAA520" stroke-width="1.5" fill="none"/>
  <path d="M32 28 Q32 32 32 37 Q36 40 44 36" stroke="#DAA520" stroke-width="1.5" fill="none"/>
  <path d="M20 36 Q14 38 14 42 Q12 46 12 50 Q14 54 16 57 Q24 60 32 58" stroke="#DAA520" stroke-width="1.5" fill="none"/>
  <path d="M44 36 Q50 38 50 42 Q52 46 52 50 Q50 54 48 57 Q40 60 32 58" stroke="#DAA520" stroke-width="1.5" fill="none"/>
  
  <!-- Estrelinhas -->
  <path d="M6 30L7.5 33L6 36L8.5 34.5L11 36L9.5 33L11 30L8.5 31.5L6 30Z" fill="#FFD700" opacity="0.7"/>
</svg>
