<svg width="64" height="64" viewBox="0 0 64 64" fill="none" xmlns="http://www.w3.org/2000/svg">
  <defs>
    <linearGradient id="velaBody" x1="0%" y1="0%" x2="100%" y2="100%">
      <stop offset="0%" style="stop-color:#FFF8DC"/>
      <stop offset="100%" style="stop-color:#F5DEB3"/>
    </linearGradient>
    <linearGradient id="velaFlame" x1="50%" y1="100%" x2="50%" y2="0%">
      <stop offset="0%" style="stop-color:#FF6B00"/>
      <stop offset="40%" style="stop-color:#FFD700"/>
      <stop offset="100%" style="stop-color:#FFFACD"/>
    </linearGradient>
    <linearGradient id="velaGlow" x1="50%" y1="100%" x2="50%" y2="0%">
      <stop offset="0%" style="stop-color:#FF8C00" stop-opacity="0.3"/>
      <stop offset="100%" style="stop-color:#FFD700" stop-opacity="0"/>
    </linearGradient>
    <filter id="flameGlow">
      <feGaussianBlur stdDeviation="3" result="coloredBlur"/>
      <feMerge>
        <feMergeNode in="coloredBlur"/>
        <feMergeNode in="SourceGraphic"/>
      </feMerge>
    </filter>
    <filter id="softGlow">
      <feGaussianBlur stdDeviation="2" result="coloredBlur"/>
      <feMerge>
        <feMergeNode in="coloredBlur"/>
        <feMergeNode in="SourceGraphic"/>
      </feMerge>
    </filter>
  </defs>
  
  <!-- Aura de luz ao redor -->
  <ellipse cx="32" cy="28" rx="20" ry="24" fill="url(#velaGlow)"/>
  
  <!-- Brilhos decorativos -->
  <circle cx="10" cy="10" r="2.5" fill="#FFD700" opacity="0.6"/>
  <circle cx="54" cy="8" r="2" fill="#FFD700" opacity="0.5"/>
  <circle cx="8" cy="48" r="2" fill="#FFD700" opacity="0.4"/>
  <circle cx="56" cy="44" r="2.5" fill="#FFD700" opacity="0.5"/>
  
  <!-- Estrelinhas ao redor -->
  <path d="M12 24L14 28L12 32L16 30L20 32L18 28L20 24L16 26L12 24Z" fill="#FFD700" opacity="0.8"/>
  <path d="M44 24L46 28L44 32L48 30L52 32L50 28L52 24L48 26L44 24Z" fill="#FFD700" opacity="0.8"/>
  <path d="M28 4L29.5 7L28 10L31 8.5L34 10L32.5 7L34 4L31 5.5L28 4Z" fill="#FFD700"/>
  
  <!-- Corpo da vela -->
  <rect x="24" y="32" width="16" height="28" rx="3" fill="url(#velaBody)" stroke="#DAA520" stroke-width="1.5"/>
  
  <!-- Detalhes na vela (cera derretendo) -->
  <path d="M24 36 Q28 38 32 35 Q36 38 40 36" stroke="#E6D5A8" stroke-width="2" fill="none"/>
  <path d="M24 44 Q28 46 32 43 Q36 46 40 44" stroke="#E6D5A8" stroke-width="1.5" fill="none"/>
  
  <!-- Pavio -->
  <rect x="31" y="26" width="2" height="8" fill="#4A3728"/>
  
  <!-- Chama principal -->
  <ellipse cx="32" cy="18" rx="8" ry="14" fill="url(#velaFlame)" filter="url(#flameGlow)"/>
  
  <!-- Núcleo da chama (mais brilhante) -->
  <ellipse cx="32" cy="20" rx="4" ry="8" fill="#FFFACD" opacity="0.8"/>
  
  <!-- Brilho interno -->
  <ellipse cx="32" cy="22" rx="2" ry="4" fill="white" opacity="0.6"/>
  
  <!-- Base/castiçal -->
  <ellipse cx="32" cy="60" rx="12" ry="3" fill="#DAA520" filter="url(#softGlow)"/>
  <ellipse cx="32" cy="59" rx="10" ry="2" fill="#FFD700"/>
</svg>
