<svg width="32" height="32" viewBox="0 0 64 64" fill="none" xmlns="http://www.w3.org/2000/svg">
  <defs>
    <linearGradient id="nomeFace" x1="0%" y1="0%" x2="100%" y2="100%">
      <stop offset="0%" style="stop-color:#FFECD2"/>
      <stop offset="100%" style="stop-color:#FCB69F"/>
    </linearGradient>
    <linearGradient id="nomeHeart" x1="0%" y1="0%" x2="100%" y2="100%">
      <stop offset="0%" style="stop-color:#FF69B4"/>
      <stop offset="100%" style="stop-color:#FF1493"/>
    </linearGradient>
  </defs>
  
  <!-- Brilhos -->
  <circle cx="8" cy="12" r="2" fill="#FFD700" opacity="0.6"/>
  <circle cx="56" cy="10" r="2.5" fill="#FFD700" opacity="0.5"/>
  <path d="M52 48L54 52L52 56L56 54L60 56L58 52L60 48L56 50L52 48Z" fill="#FFD700" opacity="0.6"/>
  
  <!-- Rosto -->
  <circle cx="32" cy="32" r="24" fill="url(#nomeFace)" stroke="#E8A87C" stroke-width="2"/>
  
  <!-- Olhos felizes (arcos) -->
  <path d="M20 28 Q24 24 28 28" stroke="#5D4037" stroke-width="3" stroke-linecap="round" fill="none"/>
  <path d="M36 28 Q40 24 44 28" stroke="#5D4037" stroke-width="3" stroke-linecap="round" fill="none"/>
  
  <!-- Bochechas rosadas -->
  <ellipse cx="18" cy="36" rx="4" ry="3" fill="#FFB6C1" opacity="0.6"/>
  <ellipse cx="46" cy="36" rx="4" ry="3" fill="#FFB6C1" opacity="0.6"/>
  
  <!-- Sorriso grande -->
  <path d="M22 38 Q32 48 42 38" stroke="#5D4037" stroke-width="3" stroke-linecap="round" fill="none"/>
  
  <!-- Coraçãozinho flutuando -->
  <path d="M52 20 Q52 16 55 16 Q57 16 57 19 Q57 16 59 16 Q62 16 62 20 Q62 24 57 28 Q52 24 52 20Z" 
        fill="url(#nomeHeart)"/>
</svg>
