<svg width="32" height="32" viewBox="0 0 64 64" fill="none" xmlns="http://www.w3.org/2000/svg">
  <defs>
    <linearGradient id="solteiroFace" x1="0%" y1="0%" x2="100%" y2="100%">
      <stop offset="0%" style="stop-color:#FFECD2"/>
      <stop offset="100%" style="stop-color:#FCB69F"/>
    </linearGradient>
    <linearGradient id="solteiroStar" x1="0%" y1="0%" x2="100%" y2="100%">
      <stop offset="0%" style="stop-color:#FFD700"/>
      <stop offset="100%" style="stop-color:#FFA500"/>
    </linearGradient>
  </defs>
  
  <!-- Brilhos festivos -->
  <circle cx="8" cy="16" r="2.5" fill="#FFD700" opacity="0.7"/>
  <circle cx="56" cy="12" r="2" fill="#FFD700" opacity="0.6"/>
  <circle cx="52" cy="52" r="2" fill="#FF69B4" opacity="0.5"/>
  <circle cx="12" cy="48" r="2.5" fill="#87CEEB" opacity="0.5"/>
  
  <!-- Estrelinhas ao redor -->
  <path d="M10 28L12 32L10 36L14 34L18 36L16 32L18 28L14 30L10 28Z" fill="#FFD700" opacity="0.7"/>
  <path d="M46 28L48 32L46 36L50 34L54 36L52 32L54 28L50 30L46 28Z" fill="#FFD700" opacity="0.7"/>
  
  <!-- Rosto feliz -->
  <circle cx="32" cy="34" r="20" fill="url(#solteiroFace)" stroke="#E8A87C" stroke-width="2"/>
  
  <!-- Olhos brilhantes (estrelas) -->
  <path d="M24 32L25.5 35L24 38L27 36.5L30 38L28.5 35L30 32L27 33.5L24 32Z" fill="#5D4037"/>
  <path d="M34 32L35.5 35L34 38L37 36.5L40 38L38.5 35L40 32L37 33.5L34 32Z" fill="#5D4037"/>
  
  <!-- Bochechas -->
  <ellipse cx="18" cy="40" rx="4" ry="3" fill="#FFB6C1" opacity="0.5"/>
  <ellipse cx="46" cy="40" rx="4" ry="3" fill="#FFB6C1" opacity="0.5"/>
  
  <!-- Sorriso grande e feliz -->
  <path d="M22 44 Q32 54 42 44" stroke="#5D4037" stroke-width="3" stroke-linecap="round" fill="none"/>
  
  <!-- Estrela grande no topo -->
  <path d="M32 4 L35 12 L44 12 L37 18 L40 26 L32 21 L24 26 L27 18 L20 12 L29 12 Z" 
        fill="url(#solteiroStar)" stroke="#DAA520" stroke-width="1"/>
  <circle cx="30" cy="12" r="2" fill="white" opacity="0.5"/>
</svg>
