<svg width="32" height="32" viewBox="0 0 64 64" fill="none" xmlns="http://www.w3.org/2000/svg">
  <defs>
    <linearGradient id="homemBody" x1="0%" y1="0%" x2="100%" y2="100%">
      <stop offset="0%" style="stop-color:#5B9BD5"/>
      <stop offset="100%" style="stop-color:#2E75B6"/>
    </linearGradient>
    <linearGradient id="homemFace" x1="0%" y1="0%" x2="100%" y2="100%">
      <stop offset="0%" style="stop-color:#FFECD2"/>
      <stop offset="100%" style="stop-color:#DEB887"/>
    </linearGradient>
  </defs>
  
  <!-- Brilhos -->
  <circle cx="10" cy="8" r="2" fill="#FFD700" opacity="0.6"/>
  <circle cx="54" cy="12" r="2.5" fill="#FFD700" opacity="0.5"/>
  <path d="M6 40L8 44L6 48L10 46L14 48L12 44L14 40L10 42L6 40Z" fill="#FFD700" opacity="0.5"/>
  
  <!-- Corpo/ombros -->
  <path d="M12 58 Q12 42 32 38 Q52 42 52 58 L52 64 L12 64 Z" fill="url(#homemBody)"/>
  
  <!-- Cabeça -->
  <circle cx="32" cy="22" r="16" fill="url(#homemFace)" stroke="#C4A77D" stroke-width="2"/>
  
  <!-- Cabelo curto -->
  <path d="M18 18 Q18 8 32 6 Q46 8 46 18 Q44 14 32 12 Q20 14 18 18Z" fill="#5D4037"/>
  
  <!-- Olhos -->
  <circle cx="26" cy="22" r="2.5" fill="#5D4037"/>
  <circle cx="38" cy="22" r="2.5" fill="#5D4037"/>
  <circle cx="26.5" cy="21.5" r="1" fill="white"/>
  <circle cx="38.5" cy="21.5" r="1" fill="white"/>
  
  <!-- Sorriso -->
  <path d="M26 30 Q32 35 38 30" stroke="#5D4037" stroke-width="2" stroke-linecap="round" fill="none"/>
  
  <!-- Cruz no peito -->
  <rect x="30" y="48" width="4" height="12" rx="1" fill="#FFD700"/>
  <rect x="26" y="52" width="12" height="4" rx="1" fill="#FFD700"/>
</svg>
